<svg width="512" height="512" viewBox="0 0 512 512" fill="none" xmlns="http://www.w3.org/2000/svg">
  <rect width="512" height="512" rx="96" fill="#0a0a0a"/>
  <rect width="512" height="512" rx="96" fill="url(#bgGrad)" opacity="0.6"/>
  <!-- Subtle scan lines overlay -->
  <rect width="512" height="512" rx="96" fill="url(#scanLines)" opacity="0.04"/>
  <!-- Red accent bar top -->
  <rect x="32" y="0" width="448" height="4" rx="2" fill="#e63946"/>
  <!-- CLASH text -->
  <!-- C -->
  <path d="M52 160 L52 352 Q52 380 80 380 L148 380 L148 340 L92 340 L92 200 L148 200 L148 160 L80 160 Q52 160 52 188 Z" fill="#f0f0f0"/>
  <!-- L -->
  <rect x="172" y="160" width="44" height="220" fill="#f0f0f0"/>
  <rect x="172" y="340" width="100" height="40" fill="#f0f0f0"/>
  <!-- A (red) -->
  <path d="M320 160 L280 380 L322 380 L335 316 L385 316 L398 380 L440 380 L400 160 Z M345 280 L360 210 L375 280 Z" fill="#e63946"/>
  <!-- S -->
  <path d="M460 160 L460 200 L540 200 L540 256 L460 256 L460 340 L556 340 L556 380 L460 380 Q432 380 432 352 L432 276 Q432 248 460 248 L540 248 L540 208 L444 208 L444 160 Z" fill="#f0f0f0"/>
  <!-- H -->
  <rect x="580" y="160" width="44" height="220" fill="#f0f0f0"/>
  <rect x="580" y="248" width="96" height="40" fill="#f0f0f0"/>
  <rect x="632" y="160" width="44" height="220" fill="#f0f0f0"/>
  <!-- BETA badge -->
  <rect x="196" y="420" width="120" height="36" rx="6" fill="#e63946"/>
  <text x="256" y="445" font-family="monospace" font-size="20" font-weight="700" fill="#ffffff" text-anchor="middle" letter-spacing="4">BETA</text>
  <!-- Red underline accent -->
  <rect x="32" y="508" width="448" height="4" rx="2" fill="#e63946"/>
  <defs>
    <linearGradient id="bgGrad" x1="0" y1="0" x2="512" y2="512" gradientUnits="userSpaceOnUse">
      <stop offset="0%" stop-color="#1a0000"/>
      <stop offset="100%" stop-color="#000a1a"/>
    </linearGradient>
    <pattern id="scanLines" x="0" y="0" width="1" height="4" patternUnits="userSpaceOnUse">
      <rect x="0" y="0" width="1" height="2" fill="#ffffff"/>
    </pattern>
  </defs>
</svg>
